<svg xmlns="http://www.w3.org/2000/svg" version="1.1" xmlns:xlink="http://www.w3.org/1999/xlink" xmlns:svgjs="http://svgjs.dev/svgjs" width="200" height="200" viewBox="0 0 1000 623"><g transform="matrix(1,0,0,1,-0.6060606060606233,0.2522267206477409)"><svg viewBox="0 0 396 247" data-background-color="#ffffff" preserveAspectRatio="xMidYMid meet" height="623" width="1000" xmlns="http://www.w3.org/2000/svg" xmlns:xlink="http://www.w3.org/1999/xlink"><g id="tight-bounds" transform="matrix(1,0,0,1,0.2400000000000091,-0.09999999999999432)"><svg viewBox="0 0 395.52 247.2" height="247.2" width="395.52"><g><svg></svg></g><g><svg viewBox="0 0 395.52 247.2" height="247.2" width="395.52"><g transform="matrix(1,0,0,1,39.55199999999999,100.80412685609531)"><svg viewBox="0 0 316.416 45.59174628780936" height="45.59174628780936" width="316.416"><g><svg viewBox="0 0 316.416 45.59174628780936" height="45.59174628780936" width="316.416"><g><svg viewBox="0 0 316.416 45.59174628780936" height="45.59174628780936" width="316.416"><g id="textblocktransform"><svg viewBox="0 0 316.416 45.59174628780936" height="45.59174628780936" width="316.416" id="textblock"><g><svg viewBox="0 0 316.416 45.59174628780936" height="45.59174628780936" width="316.416"><g transform="matrix(1,0,0,1,0,0)"><svg width="316.416" viewBox="0.800000011920929 -33.45000076293945 272.7200012207031 39.29999923706055" height="45.59174628780936" data-palette-color="#8d021f"><path d="M21.15-2.05L21.15-2.05Q19.95-0.2 19.95 0.35 19.95 0.9 20.4 1.15L20.4 1.15Q20.4 1.2 19.5 1.9L19.5 1.9Q18.7 2.3 17.7 2.3 16.7 2.3 16.25 2.08 15.8 1.85 15.95 1.35L15.95 1.35Q16.65-0.9 21.2-7.68 25.75-14.45 27.3-17.25L27.3-17.25Q30.65-23.3 30.65-26.9L30.65-26.9Q30.65-28.4 30.15-29.45L30.15-29.45Q29.15-31.5 25.4-31.5L25.4-31.5Q19.55-31.5 13.3-26.45L13.3-26.45Q8.3-22.4 5.65-17.88 3-13.35 3-9.8L3-9.8Q3-4.7 7.5-4.6L7.5-4.6Q7.7-4.6 7.9-4.6L7.9-4.6Q13.65-4.6 16.8-8.75L16.8-8.75Q18-10.4 18-11.55 18-12.7 17.5-13L17.5-13Q17.45-13.05 17.45-13.2 17.45-13.35 17.75-13.35L17.75-13.35Q19.05-13.35 19.05-11.65L19.05-11.65Q19.05-10.6 18.03-8.8 17-7 14.4-5.4 11.8-3.8 8.35-3.8 4.9-3.8 2.85-5.95 0.8-8.1 0.8-11.6L0.8-11.6Q0.8-19.5 11.1-27.75L11.1-27.75Q13.75-29.85 18.07-31.2 22.4-32.55 26.35-32.55 30.3-32.55 31.73-31.18 33.15-29.8 33.15-27.5L33.15-27.5Q33.15-24 30.3-18.05L30.3-18.05Q29.4-16.2 26.25-11.3L26.25-11.3 30.1-16.2Q32.9-19.85 39.8-26.6L39.8-26.6Q41.3-28.05 43.13-29.03 44.95-30 46.25-30L46.25-30Q48.05-30 48.05-28.1L48.05-28.1Q48.05-26.45 46.48-23.13 44.9-19.8 43.3-16.82 41.7-13.85 41.35-12.93 41-12 40.85-11.45 40.7-10.9 40.65-10.85L40.65-10.85Q40.8-11.1 43.95-14.68 47.1-18.25 53.25-23.6L53.25-23.6 61.25-30.2Q62.2-31 62.95-31 63.7-31 64.17-29.75 64.65-28.5 64.65-27.73 64.65-26.95 62.25-24.5L62.25-24.5Q56-18.1 51.65-10.5 47.3-2.9 47.3 0.35L47.3 0.35Q47.3 1.2 47.6 1.53 47.9 1.85 48.55 1.73 49.2 1.6 51.28 0.7 53.35-0.2 54-0.35L54-0.35Q54.25-0.25 54.25-0.1L54.25-0.1Q54.25 0.65 51.63 2 49 3.35 47.68 3.35 46.35 3.35 46.05 2.9L46.05 2.9Q45.15 1.6 45.15-0.25L45.15-0.25Q45.15-4.55 49.75-12.6L49.75-12.6Q52.7-17.65 58.85-26.2L58.85-26.2Q54.05-22.3 45.85-14.25 37.65-6.2 35.1-1.65L35.1-1.65Q33.8 0.7 31.95 0.7L31.95 0.7Q31.1 0.7 31.1 0.1L31.1 0.1Q31.1-0.1 32.13-1.7 33.15-3.3 36.65-9.2L36.65-9.2Q45.25-24.15 45.25-27.2L45.25-27.2Q45.25-28 44.7-28L44.7-28Q43.9-28 42.35-26.65L42.35-26.65Q36.8-22 30.55-14.5 24.3-7 21.15-2.05ZM69.85-10.6L69.85-10.6Q69.85-8.85 66.5-4.75L66.5-4.75Q62.55 0.1 59.75 0.1L59.75 0.1 58.95 0.1Q57.65 0.1 56.9-1.25L56.9-1.25Q56.3-2.2 56.3-3.35L56.3-3.35Q56.3-6.35 60.67-11.78 65.05-17.2 67.75-17.2L67.75-17.2Q70.3-17.2 70.3-14.5L70.3-14.5Q70.3-13.8 70.05-12.7L70.05-12.7Q70.1-12.55 71-12.55 71.9-12.55 73.75-13.5L73.75-13.5Q73.7-12.65 69.8-11.05L69.8-11.05Q69.85-10.85 69.85-10.6ZM66.6-13.2L66.6-13.2Q64.9-13.2 61.77-9.2 58.65-5.2 58.65-3.3 58.65-1.4 59.85-1.4L59.85-1.4Q62-1.4 65.3-5.3 68.6-9.2 68.6-10.9L68.6-10.9Q67.8-11.35 66.6-13.2ZM78.9-15.8L78.9-15.8Q80.25-15.8 80.25-14.75L80.25-14.75Q80.25-14.45 80.1-14.15L80.1-14.15Q75.6-7.9 74.7-4.7L74.7-4.7Q86.35-16.35 88.85-16.35L88.85-16.35Q89.1-16.4 89.3-16.4L89.3-16.4Q90.7-16.4 90.7-15.15L90.7-15.15Q90.7-14.9 90.6-14.65 90.5-14.4 88.6-11.95L88.6-11.95Q86.4-9.35 84.87-6.95 83.35-4.55 83.35-2.95 83.35-1.35 84.05-1.35L84.05-1.35Q86.25-1.35 91.7-7.4L91.7-7.4Q91.8-7.5 92.05-7.85L92.05-7.85Q92.8-8.75 92.95-8.75 93.1-8.75 93.1-8.25 93.1-7.75 92.4-6.95L92.4-6.95Q86.2 0.1 83.6 0.1L83.6 0.1Q81.15 0.1 81.15-2.6 81.15-5.3 83.15-8.8L83.15-8.8 86.35-14Q82.95-11.5 80.3-8.53 77.65-5.55 75.47-2.75 73.3 0.05 72.95 0.05L72.95 0.05Q72.2 0.05 71.77-0.58 71.35-1.2 71.35-2.13 71.35-3.05 72-4.6 72.65-6.15 73.65-8.35L73.65-8.35 70.65-5.2Q69.55-4.1 69.27-4.1 69-4.1 69-4.42 69-4.75 69.4-5.15L69.4-5.15Q71.25-7 72.6-8.7L72.6-8.7Q73.9-10.4 77.95-15.2L77.95-15.2Q78.4-15.8 78.9-15.8ZM107.59-14.95L107.59-14.95 108.29-15.1Q108.84-15.1 109.34-14.65 109.84-14.2 109.84-13.95 109.84-13.7 106.74-9.13 103.64-4.55 103.64-2.75L103.64-2.75Q103.64-2.6 103.69-2.45L103.69-2.45Q103.94-1.3 104.79-1.3L104.79-1.3Q107.39-1.3 114.29-9.9L114.29-9.9Q114.44-10.1 114.64-10.1 114.84-10.1 114.84-9.73 114.84-9.35 114.39-8.75L114.39-8.75Q107.99-0.2 104.64-0.2L104.64-0.2Q104.19-0.2 103.79-0.35L103.79-0.35Q101.59-1.2 101.59-3.65L101.59-3.65Q101.59-4.5 101.79-5.35L101.79-5.35 98.69-2.35Q95.74 0.25 94.42 0.25 93.09 0.25 91.89-0.6L91.89-0.6Q90.54-1.6 90.54-3.25L90.54-3.25Q90.54-6.9 95.64-11.98 100.74-17.05 104.99-17.05L104.99-17.05Q106.64-17.05 107.19-15.9L107.19-15.9Q107.34-15.5 107.44-15.23 107.54-14.95 107.59-14.95ZM92.64-2.65L92.64-2.65Q92.64-0.85 93.89-0.85L93.89-0.85Q96.79-0.85 101.79-7.2L101.79-7.2 107.09-14.5Q106.69-15.2 105.79-15.2L105.79-15.2Q102.74-15.2 97.69-10.48 92.64-5.75 92.64-2.65ZM168.79-14.3L168.79-14.3 173.64-14.4Q175.44-14.4 175.44-14.15L175.44-14.15Q175.44-13.5 168.14-13L168.14-13Q163.49-3.9 163.49-0.6L163.49-0.6Q163.49 1.7 164.94 1.7L164.94 1.7Q165.49 1.7 166.31 1.03 167.14 0.35 167.31 0.35 167.49 0.35 167.49 0.6L167.49 0.6Q167.24 1.5 165.96 2.1 164.69 2.7 163.81 2.7 162.94 2.7 162.44 2.6L162.44 2.6Q161.24 2.15 161.24-0.3L161.24-0.3Q161.24-5.35 165.09-13.15L165.09-13.15 159.09-13Q152.39-6.45 145.64-1.5L145.64-1.5Q135.54 5.85 129.84 5.85L129.84 5.85Q129.49 5.85 129.14 5.8L129.14 5.8Q121.44 5.15 121.44-2.1L121.44-2.1Q121.44-6.4 124.14-11.2L124.14-11.2Q127.74-17.6 133.99-22.13 140.24-26.65 145.19-26.65 150.14-26.65 150.14-23L150.14-23Q150.14-20.55 148.64-17.55 147.14-14.55 145.59-13.75L145.59-13.75Q145.44-13.7 145.26-13.7 145.09-13.7 145.09-13.8L145.09-13.8 146.74-16.5Q148.44-19.15 148.44-21.15 148.44-23.15 147.56-24.38 146.69-25.6 144.79-25.6L144.79-25.6Q140.89-25.6 135.46-21.25 130.04-16.9 127.21-10.55 124.39-4.2 124.39-0.65L124.39-0.65Q124.39 4.7 129.84 4.7L129.84 4.7Q135.04 4.7 143.94-2L143.94-2Q147.89-4.95 156.79-13.15L156.79-13.15Q155.04-13.05 153.54-12.8L153.54-12.8Q150.34-12.2 150.54-13L150.54-13Q150.74-14.85 152.44-14.85L152.44-14.85Q155.74-14.45 157.99-14.45L157.99-14.45Q162.29-18.4 170.84-27.4L170.84-27.4Q176.59-33.45 177.84-33.45L177.84-33.45Q178.39-33.45 178.39-32.6 178.39-31.75 177.94-29.95 177.49-28.15 176.94-27.75L176.94-27.75Q175.79-26.95 174.79-25.58 173.79-24.2 171.94-20.43 170.09-16.65 168.79-14.3ZM172.79-26.5L172.79-26.5 159.99-14.5 162.94-14.5Q163.99-14.45 165.54-14.45L165.54-14.45Q166.99-17.3 172.79-26.5ZM183.89-12.45L183.89-12.45Q183.89-15.85 185.99-15.85L185.99-15.85Q186.19-15.85 186.44-15.8L186.44-15.8Q187.29-15.65 187.29-14.5 187.29-13.35 186.89-11.6L186.89-11.6Q186.49-10.3 186.34-9.65L186.34-9.65Q186.49-8.8 187.16-7.48 187.84-6.15 189.01-6.15 190.19-6.15 191.64-7.75L191.64-7.75Q191.94-8.1 192.21-8.1 192.49-8.1 192.51-7.78 192.54-7.45 192.14-6.9L192.14-6.9Q190.59-5.05 188.89-5.05L188.89-5.05Q186.44-5.05 184.94-8.65L184.94-8.65Q183.39-5.1 180.54-2.53 177.69 0.05 174.89 0.05L174.89 0.05Q172.24 0.05 172.24-3.95L172.24-3.95Q172.24-7.1 178.11-15.55 183.99-24 187.09-24L187.09-24Q187.74-24 188.26-23.6 188.79-23.2 188.79-22.65L188.79-22.65Q188.79-22.7 188.06-21.9 187.34-21.1 184.11-17.6 180.89-14.1 177.79-9.9 174.69-5.7 174.69-3.4L174.69-3.4Q174.69-2.8 175.01-2.1 175.34-1.4 176.09-1.4L176.09-1.4Q178.29-1.4 181.24-4.8L181.24-4.8Q183.69-7.8 184.24-9.85L184.24-9.85Q183.89-10.9 183.89-12.45ZM201.58-20.4Q202.33-20.4 203.01-19.93 203.68-19.45 203.68-18.8 203.68-18.15 203.06-17.68 202.43-17.2 201.68-17.2 200.93-17.2 200.31-17.75 199.68-18.3 199.68-19L199.68-19Q199.68-20.4 201.58-20.4L201.58-20.4ZM192.53 0.55L192.53 0.55Q189.98 0.55 189.98-2.75L189.98-2.75Q189.98-5.45 192.93-10.23 195.88-15 197.68-15.05L197.68-15.05Q198.18-15.05 198.81-14.65 199.43-14.25 199.43-13.85L199.43-13.85Q199.18-13.5 198.83-13.08 198.48-12.65 198.08-12.15 197.68-11.65 196.98-10.73 196.28-9.8 195.63-8.95L195.63-8.95Q191.88-4.1 191.88-2.27 191.88-0.45 193.13-0.45L193.13-0.45Q194.18-0.45 195.98-1.6L195.98-1.6Q200.18-4.2 202.63-7.3L202.63-7.3Q203.53-8.45 203.86-8.45 204.18-8.45 204.18-8.05 204.18-7.65 203.03-6.45 201.88-5.25 201.21-4.55 200.53-3.85 200.28-3.63 200.03-3.4 199.36-2.78 198.68-2.15 198.33-1.9 197.98-1.65 197.33-1.15 196.68-0.65 196.18-0.43 195.68-0.2 195.03 0.1L195.03 0.1Q193.98 0.55 192.53 0.55ZM212.83-1.8L211.23-0.75Q209.78 0.1 207.66 0.1 205.53 0.1 204.41-1.3 203.28-2.7 202.48-5.75L202.48-5.75Q201.58-4.85 201.23-4.85L201.23-4.85Q200.98-4.85 200.98-5.2 200.98-5.55 201.23-5.8L201.23-5.8Q202.88-7.85 206.83-11.7L206.83-11.7 213.13-17.6Q215.83-20.15 216.33-20.15L216.33-20.15Q217.93-20.15 217.93-18.95L217.93-18.95Q217.93-18.35 217.46-17.78 216.98-17.2 216.76-16.88 216.53-16.55 216.28-16.25L216.28-16.25Q215.38-14.7 214.46-9.85 213.53-5 213.03-3.1L213.03-3.1Q217.18-3.15 221.58-8.5L221.58-8.5Q222.08-9 222.33-9 222.58-9 222.58-8.68 222.58-8.35 222.13-7.8L222.13-7.8Q219.23-4.4 216.73-3.05L216.73-3.05Q215.23-2.3 212.83-1.8L212.83-1.8ZM204.48-6.3L204.48-6.3Q204.48-4.6 205.61-3.53 206.73-2.45 208.13-2.45 209.53-2.45 210.28-3L210.28-3Q211.28-3.55 212.26-7.6 213.23-11.65 213.43-14.75L213.43-14.75 213.63-16.45Q210.88-14.4 207.76-11.15 204.63-7.9 204.53-6.85L204.53-6.85Q204.48-6.55 204.48-6.3ZM231.83-0.2L231.83-0.2Q228.88-0.2 228.88-3.65L228.88-3.65Q228.88-5.6 230.25-7.98 231.63-10.35 233.63-13.55L233.63-13.55Q227.23-10.35 222.03-4.1L222.03-4.1Q219.13 0.25 218.63 0.25L218.63 0.25Q217.18 0.25 217.18-0.6L217.18-0.6Q217.18-1.05 217.78-2.2L217.78-2.2Q222.63-10.85 225.13-14.85L225.13-14.85Q231.08-24.4 233.53-25.2L233.53-25.2Q233.63-25.25 233.73-25.25L233.73-25.25Q234.38-25.25 234.63-24.2L234.63-24.2Q234.48-23.15 229.43-16.6L229.43-16.6Q224.18-9.95 223.48-7.9L223.48-7.9Q225.33-9.25 229.93-12.45L229.93-12.45Q234.88-15.9 236.48-15.9 238.08-15.9 238.08-14.65L238.08-14.65Q238.08-14.45 238.05-14.38 238.03-14.3 234.58-9.65 231.13-5 231.13-2.8L231.13-2.8Q231.13-1.65 231.98-1.65L231.98-1.65Q234.68-1.75 240.08-8.15L240.08-8.15Q240.53-8.6 240.75-8.6 240.98-8.6 240.98-8.3L240.98-8.3Q240.98-7.3 236.03-2.9L236.03-2.9Q232.93-0.2 231.83-0.2ZM241.33 0.65L241.33 0.65Q240.78 0.65 240.33 0.5L240.33 0.5Q237.13-0.4 237.13-3.1L237.13-3.1Q237.13-6.6 241.53-11.2 245.93-15.8 249.43-15.8L249.43-15.8Q250.58-15.8 251.3-15.18 252.03-14.55 252.03-13.65L252.03-13.65Q252.03-10.85 247.8-8.3 243.58-5.75 240.93-5.75L240.93-5.75Q240.53-5.75 240.23-5.85L240.23-5.85Q239.48-4.5 239.48-3L239.48-3Q239.48-0.4 241.95-0.4 244.43-0.4 248.38-3.75L248.38-3.75Q251.43-6.2 253.58-8.95L253.58-8.95Q254.03-9.55 254.35-9.55 254.68-9.55 254.68-9.25 254.68-8.95 254.28-8.4L254.28-8.4Q251.58-4.85 247.78-2.1 243.98 0.65 241.33 0.65ZM250.78-13.75L250.78-13.75Q250.78-14.35 249.5-14.35 248.23-14.35 245.88-12.4L245.88-12.4Q242.73-9.8 240.98-6.95L240.98-6.95Q241.28-6.85 241.63-6.85L241.63-6.85Q243.53-6.85 246.7-8.88 249.88-10.9 250.68-13.3L250.68-13.3Q250.78-13.55 250.78-13.75ZM261.87 0.6L261.87 0.6Q257.92 0.6 255.17-5.65L255.17-5.65Q254.47-4.6 252.02 0.25L252.02 0.25Q250.22-0.45 250.22-1.65L250.22-1.65Q250.22-3.8 256.67-13.45 263.12-23.1 265.52-24.8L265.52-24.8Q265.72-24.95 266.32-24.95L266.32-24.95Q267.87-24.95 267.87-24.15L267.87-24.15Q267.87-23.75 264.4-19.65 260.92-15.55 260.52-14.7L260.52-14.7Q265.07-17.05 267.77-17.05L267.77-17.05Q269.32-17.05 270.42-15.8L270.42-15.8Q271.47-14.75 271.47-13.65L271.47-13.65Q271.47-13.5 271.47-13.35L271.47-13.35Q271.07-10.5 267.47-8.65L267.47-8.65Q264.57-7.1 262.07-7.1 259.57-7.1 258.57-7.75L258.57-7.75Q258.27-7.8 258.1-7.6 257.92-7.4 258.02-7.1L258.02-7.1Q259.42-0.9 262.67-0.9L262.67-0.9Q264.37-0.9 267.05-2.8 269.72-4.7 272.62-8.15L272.62-8.15Q272.97-8.5 273.25-8.5 273.52-8.5 273.52-8.22 273.52-7.95 273.17-7.45L273.17-7.45Q270.47-4.15 268.07-2.25L268.07-2.25Q264.42 0.6 261.87 0.6ZM269.07-14.7L269.07-14.7Q269.07-15.1 268.62-15.5 268.17-15.9 267.67-15.9L267.67-15.9Q264.97-15.9 261.2-13.65 257.42-11.4 256.57-8.55L256.57-8.55Q257.02-8.55 258.97-8.4L258.97-8.4Q261.22-8.4 264.87-10.25L264.87-10.25Q269.07-12.35 269.07-14.7Z" opacity="1" transform="matrix(1,0,0,1,0,0)" fill="#8d021f" class="undefined-text-0" data-fill-palette-color="primary" id="text-0"></path></svg></g></svg></g></svg></g></svg></g><g></g></svg></g></svg></g><g mask="url(#3da09654-ed0f-424c-9c26-53bdb4997dff)"><g transform="matrix(2.5101594711013253, 0, 0, 2.5101594711013253, 74.22259700171304, 0.9999999999999858)"><svg xmlns="http://www.w3.org/2000/svg" xmlns:xlink="http://www.w3.org/1999/xlink" version="1.1" viewBox="0.9111520051956177 1.9129858016967773 98.42992401123047 97.68303680419922" overflow="visible" enable-background="new 0 0 100.416 100.41" xml:space="preserve" x="0" y="0" height="97.68303680419922" width="98.42992401123047" class="icon-none" data-fill-palette-color="accent" id="none"><g fill="#ff5858" data-fill-palette-color="accent"><g fill="#ff5858" data-fill-palette-color="accent"><path d="M20.573 62.858c1.597-0.73 2.351-2.311 4.829-2.166 1.641-1.687 4.093-2.562 6.827-3.16 0.713-3.064 1.047-6.501 2.663-8.661-0.516-0.035-0.279-0.83-0.33-1.333 1.182-1.813 1.499-4.494 2.826-6.159 0.29-1.765 0.736-3.372 1.667-4.496-0.196-0.27 0.07-1.608-0.165-2.167-0.922 0.828-2.626 2.368-3.832 1.833-0.183 0.803-0.855 1.344-1.499 1.83-1.382 1.052-4.006 2.972-5.164 3.333-0.312 0.315 0.103 0.298 0 0.831-2.251 1.575-3.319 4.339-4.992 6.493-0.509 2.544-1.166 4.942-2.331 6.827C21.533 58.196 20.076 59.953 20.573 62.858zM26.732 69.685c-1.613 0.472-3.97 0.621-4.829 2.332 0.198 0.847 0.741 1.5 0.333 2.496 1.315 0.409 1.608 1.835 2.664 2.501 0.026-2.03 0.399-3.709 1.499-4.663C25.535 71.458 26.539 69.95 26.732 69.685zM55.21 51.202c0.926-2.583-1.116-4.344-1.835-6.326-0.653-1.802-1.119-3.575-1.999-4.662-0.086-0.629-0.233-0.781 0.167-1.166-1.264-0.689-1.58-2.992-1.499-4.496-0.475-0.803-1.614-0.942-1.332-2.498-0.278 0-0.553 0-0.833 0-0.924 2.544-1.474 5.064-2.498 7.161 0.649 2.193-0.566 3.861-0.831 5.16-0.158 0.774 0.578 1.592-0.336 1.997-0.017-0.202-0.048-0.392-0.33-0.33-0.408 1.31-1.372 2.069-1 4.163-0.878 0.478-0.818 1.027-0.666 2.331-0.825 0.496-1.749 2.314-1.166 3.161 0.218-0.396 0.54-0.684 0.998-0.83 2.922-0.412 5.678-0.985 7.995-1.998 0.221 0 0.151 0.29 0.333 0.335C50.762 51.31 53.657 51.931 55.21 51.202zM70.359 53.534c-0.533 1.352-2.72 1.056-3.83 1.831 0.873 1.271 2.273 2.794 1.665 4.996 0.874 0.456 1.371 1.299 1.331 2.662 0.932 0.987 1.467 3.273 0.834 4.832 0.612 0.996 0.929 2.293 1.497 3.331 0.028 0.525-0.438 0.558-0.332 1.165 0.961 0.315 1.882 0.671 2.333 1.501 0.656-0.616 1.088-1.504 0.498-2.502 1.185-1.812 1.737-4.258 2.664-6.327 0.271-3.013 0.576-6.298 1.001-9.491 0.264-1.969-0.048-4.198-1.668-4.659 0.121 1.229-0.587 0.276-1.164 0.33 0.601 1.695-3.315 1.622-3.995 2.663C70.875 53.794 70.891 53.388 70.359 53.534zM64.368 37.048c-2.245-0.425-3.804-1.525-5.33-2.663-0.22 0-0.445 0-0.668 0-0.115 1.568 0.869 2.744 1.001 3.663 0.024 0.168-0.252 0.738-0.168 0.999 0.327 1.011 1.762 2.699 2.331 3.995 0.481 1.092 0.933 1.355 1.164 2.331 0.198 0.819-0.45 1.63 0.334 2.331 1.559-0.763 4.08-0.714 5.162-1.333 0.675-0.38 3.974-1.855 3.997-2.326 0.011-0.26-1.029-0.83-1.333-1.169C69.096 40.906 66.611 38.432 64.368 37.048zM65.697 91.334c-1.388 0.692-4.52 2.697-6.161 2.995-0.682 0.123-1.549-0.036-2.332 0-2.842 0.134-5.94 0.678-8.327 0.333-2.148-0.312-5.418-0.13-7.157-1.33-1.177 0.64-2.173-0.428-3.332-0.668-1.81-0.371-4.281 0.028-4.663-1.665-0.623 0.263-2.471-0.98-2.498-1.832-0.811 0.39-1.204-0.598-2.165-0.333-1.792 3.388-2.589 7.405-4.33 10.491-0.942 0-1.885 0-2.831 0-2.199-4.423 2.152-8.012 0.833-12.82-0.288-1.056-1.64-1.615-2.831-2.664-0.679-0.6-0.869-1.369-1.331-1.834-1.387-1.398-3.022-2.215-4-3.83 0-0.331 0-0.666 0-0.999-0.685-0.479-1.222-1.105-1.162-2.331-0.523-0.145-1.71 0.385-1.502-0.487-0.222 0.605-0.37 1.287-0.831 1.653-3.51 0.595-6.458 2.293-9.825 1.667-0.083-1.089-0.607-2.035-0.167-3.167 2.223 0.005 2.541-1.898 4.663-1.997 0.496-0.002 0.211-0.784 0.5-0.996 2.183-1.542 5.164-2.277 5.663-5.496-0.028-0.463 0.257-0.574 0.5-0.335-0.884-2.458-2.909-7.649-0.5-9.824-0.435-3.521 2.228-4.864 2.332-8.657 2.053-1.164 2.005-4.433 3.828-5.828-0.14-0.698 0.323-0.79 0.333-1.335 2.314-1.803 2.761-4.455 4.997-6.326 1.567-0.097 1.967-1.362 3.162-1.83 0.04-0.569 0.421-0.799 0.333-1.502 2.075 0.108 3.137-4.029 4.997-2.496 0.292-0.654 1.757-1.011 2.496-0.664 1.727-1.605 5.022-1.64 6.996-2.998 0.879-3.558 4.406-4.476 3.662-9.66 0.253-0.411 0.481-0.851 0.833-1.164 0.198-4.17 0.242-8.659 2.165-11.492 0.222 0 0.445 0 0.667 0 0.306 0.425 0.669 0.971 0.165 1.333 2.208 2.566 1.46 8.092 3.832 10.492 0 0.553 0 1.11 0 1.664 0.887 1.355 1.045 2.581 1.165 4.496 0.038 0.461 0.528 0.473 0.666 0.834 0.054 0.609-0.142 1.472 0.167 1.83 1.477 1.112 4.048 0.171 5.659 0.501 0.312 0.798 1.071 1.151 2.167 1.166 0.747 1.525 3.129 1.422 3.996 2.831 2.102 0.116 3.132 1.305 4.995 1.662 0.042 1.125 1.104 1.23 1.832 1.665 0.021 1.815 1.76 1.905 2.166 3.332 0.665 0.093 0.5 0.093 1.164 0 1.261 1.682 3.064 2.826 3.665 5.164 0.22 0.11 0.745 0.09 1.164 0-0.066 0.398 0.305 0.361 0.167 0.831 3.15 0.485 6.315 0.313 8.49-0.998 0.463 0.148 1.565-0.341 1.5 0.333 1.464-0.979 4.371-2.536 7.494-1.835 0.271 0.62 0.14 1.64 0.164 2.5-0.824 1.337-3.21 1.116-3.994 2.498-4.246 1.137-5.467 5.3-9.49 6.661 0.049 0.827-0.029 1.527-0.503 1.832 1.168 2.897 0.37 5.861 0.835 8.494-0.205 0.404-0.446 0.774-0.835 0.995 0.135 0.479 0.557 0.668 0.668 1.168 0.512 1.55-0.826 3.073-0.831 4.164-0.003 0.425 0.475 0.893 0.5 1.495 0.048 1.289-0.52 2.521-0.835 4-0.194 0.139-0.445 0.219-0.832 0.167 0.156 1.599-0.427 2.459-1.164 3.162 1.483 2.919-1.657 3.611-3.165 5.829-0.259 0.378-0.283 0.853-0.5 1.163-0.435 0.627-0.897 0.879-0.997 1.999 0.686 0.575 0.678 2.706 0.166 3.499 0.205 0.458 0.991 0.34 0.998 0.997 0.062 0.508-0.604 0.285-0.668 0.666 0.934 3.497 2.666 6.742 2.499 10.824-3.875 1.41-4.017-3.174-6.327-3.331-0.222-0.591-0.856-1.462-0.167-1.998-1.221-0.829-0.426-3.678-2.999-3.164-0.238-0.367-0.418-0.801-0.329-1.496-0.224-0.28-0.948-0.057-1.168-0.333C69.249 90.155 67.386 90.487 65.697 91.334zM62.037 67.519c-1.875-2.583-0.604-7.84-4.496-8.657-2.318 0.924-5.715 1.029-6.829 1.83-0.208-0.909-0.553 0.172-1-0.5 0.181 1.096-0.536 0.418-1.164 0.5 0.017 0.416 0.31 0.517 0 0.834-2.063 0.883-5.52 0.365-7.329 1.497-0.723 0.885-1.582 1.637-2.831 2 0 0.331 0 0.666 0 1.001-2.301 3.08-3.632 7.132-4.996 11.154 0.854 1.147-0.599 2.231-0.331 3.83 1.31 1.969 4.82 1.729 6.161 3.663 0.145-0.907 0.818 0.182 1.497-0.499 1.016 1.205 3.385 1.054 4.33 2.333 2.972-0.767 6.491 1.653 8.49-0.168 0.028 0.249-0.058 0.615 0.17 0.667 0.236-1.094 2.568-0.095 2.829-1.169 0.625-0.175 0.475 0.415 1.003 0.337 0.73-1.211 2.714-1.006 4.159-1.499 0.873-0.301 1.837-1.069 2.668-1.668 0.775-0.562 2.396-1.275 2.496-1.997 0.16-1.171-2.72-3.528-1.835-5.828C63.546 73.116 62.258 70.851 62.037 67.519z" fill="#ff5858" data-fill-palette-color="accent"></path></g></g></svg></g></g></svg></g><defs><mask id="3da09654-ed0f-424c-9c26-53bdb4997dff"><rect width="640" height="400" fill="white"></rect><rect width="348.05760000000004" height="67.11798048109112" fill="black" x="145.97119999999998" y="166.44100975945443" id="transform-me" transform="matrix(1,0,0,1,-122.24000000000001,-76.4)"></rect></mask></defs></svg><rect width="395.52" height="247.2" fill="none" stroke="none" visibility="hidden"></rect></g></svg></g></svg>